# xmcd
#
# Track frame offsets: 
#        150
#        10142
#        21775
#        31077
#        43192
#        53302
#        63660
#        76582
#        87357
#        98482
#        109055
#        119085
#
# Disc length: 1756 seconds
#
# Revision: 1
# Processed by: cddbd v1.5.2PL0 Copyright (c) Steve Scherf et al.
# Submitted via: ExactAudioCopy v0.95b4
#
DISCID=8706da0c
DTITLE=Eddy Arnold - My World
DYEAR=1965
DGENRE=Country
TTITLE0=What's He Doin' In My World
TTITLE1=Too Many Rivers
TTITLE2=It Comes and Goes
TTITLE3=Make The World Go Away
TTITLE4=The Days Gone By
TTITLE5=Mary Claire Melvina Rebecca Jane
TTITLE6=I'm Letting You Go
TTITLE7=As Usual
TTITLE8=I'm Walking Behind You
TTITLE9=If You Were Mine, Mary
TTITLE10=Taking Chances
TTITLE11=You Still Got A Hold On Me
EXTD=re-issue RCA BMG DZS-146 KRC 11864 C.1965 c. 1997
EXTT0=
EXTT1=
EXTT2=
EXTT3=
EXTT4=
EXTT5=
EXTT6=
EXTT7=
EXTT8=
EXTT9=
EXTT10=
EXTT11=
PLAYORDER=
